<svg width="300" height="300" viewBox="0 0 300 300" fill="none" xmlns="http://www.w3.org/2000/svg">
<circle cx="150" cy="150" r="141" stroke="white" stroke-width="18"/>
<path fill-rule="evenodd" clip-rule="evenodd" d="M131.787 87.7275C149.396 82.536 159.461 64.0531 154.27 46.4449C154.112 45.9103 153.942 45.3827 153.761 44.8623L178.509 37.5657L234.674 228.064L209.965 235.349C204.774 217.741 186.291 207.675 168.683 212.867C151.074 218.058 141.009 236.541 146.2 254.149L121.491 261.434L65.3257 70.936L90.0738 63.6394C90.2035 64.1751 90.3471 64.7105 90.5047 65.245C95.6962 82.8533 114.179 92.919 131.787 87.7275Z" fill="white"/>
<path d="M180.509 130.602L158.315 133.768L143.091 117.198C142.675 116.744 142.121 116.441 141.516 116.335C139.998 116.069 138.55 117.091 138.28 118.616L134.481 140.795L114.119 150.176C113.557 150.433 113.102 150.869 112.816 151.411C112.471 152.07 112.4 152.841 112.621 153.553C112.841 154.265 113.334 154.862 113.991 155.211L133.832 165.752L136.473 188.119C136.534 188.64 136.739 189.133 137.064 189.543C137.39 189.953 137.823 190.264 138.315 190.44C138.807 190.616 139.338 190.651 139.848 190.539C140.357 190.428 140.825 190.175 141.198 189.81L157.266 174.145L179.263 178.587C179.864 178.712 180.495 178.627 181.044 178.355C182.427 177.673 182.998 175.994 182.315 174.603L172.399 154.381L183.348 134.762C183.645 134.226 183.763 133.605 183.673 132.991C183.465 131.451 182.04 130.388 180.509 130.602Z" fill="#F71432"/>
</svg>
