<svg width="20" height="20" viewBox="0 0 20 20" fill="none" xmlns="http://www.w3.org/2000/svg">
<path d="M17.545 15.467L13.766 11.688C14.3551 10.7211 14.6658 9.61028 14.664 8.47801C14.664 5.06101 11.703 2.10101 8.28598 2.10101C7.47358 2.10088 6.66912 2.2608 5.91854 2.57163C5.16796 2.88246 4.48597 3.33811 3.91152 3.91256C3.33707 4.48701 2.88142 5.169 2.57059 5.91958C2.25976 6.67016 2.09984 7.47462 2.09998 8.28701C2.09998 11.703 5.06098 14.664 8.47698 14.664C9.57193 14.665 10.6473 14.3736 11.592 13.82L15.391 17.621C15.5696 17.7992 15.8117 17.8993 16.064 17.8993C16.3163 17.8993 16.5583 17.7992 16.737 17.621L17.68 16.678C18.051 16.307 17.916 15.838 17.545 15.467ZM4.00398 8.28701C4.00384 7.72461 4.1145 7.16769 4.32964 6.64806C4.54477 6.12842 4.86016 5.65626 5.25779 5.25854C5.65542 4.86081 6.12751 4.54531 6.64709 4.33006C7.16668 4.1148 7.72357 4.00401 8.28598 4.00401C10.652 4.00401 12.76 6.11101 12.76 8.47801C12.7597 9.61385 12.3084 10.7031 11.5052 11.5063C10.7021 12.3094 9.61282 12.7607 8.47698 12.761C6.11098 12.76 4.00398 10.652 4.00398 8.28701V8.28701Z" fill="#808080"/>
</svg>
