<svg width="300" height="300" viewBox="0 0 300 300" fill="none" xmlns="http://www.w3.org/2000/svg">
<path fill-rule="evenodd" clip-rule="evenodd" d="M224.304 259.116C203.139 273.557 177.555 282 150 282C122.827 282 97.5723 273.79 76.5804 259.714C76.6514 259.517 76.6922 259.303 76.6973 259.079C77.1893 240.07 84.8156 222.268 98.2969 208.774C112.246 194.813 130.77 187.131 150.5 187.131C170.23 187.131 188.754 194.813 202.703 208.774C216.184 222.268 223.811 240.07 224.303 259.079C224.303 259.092 224.303 259.104 224.304 259.116ZM241.651 244.995C240.453 238.133 238.474 231.416 235.742 224.976C231.092 213.979 224.359 203.987 215.914 195.552C207.426 187.032 197.537 180.359 186.516 175.706C186.417 175.656 186.319 175.632 186.221 175.582C201.547 164.477 211.51 146.429 211.51 126.065C211.51 92.3317 184.203 65 150.5 65C116.797 65 89.4898 92.3317 89.4898 126.065C89.4898 146.429 99.4531 164.477 114.779 175.558C114.681 175.607 114.583 175.632 114.484 175.681C103.497 180.335 93.5137 187.074 85.0862 195.527C76.6331 203.956 69.8986 213.949 65.2579 224.952C62.4077 231.685 60.3878 238.667 59.2104 245.819C33.8298 221.763 18 187.73 18 150C18 77.0984 77.0984 18 150 18C222.902 18 282 77.0984 282 150C282 187.301 266.528 220.989 241.651 244.995ZM300 150C300 232.843 232.843 300 150 300C67.1573 300 0 232.843 0 150C0 67.1573 67.1573 0 150 0C232.843 0 300 67.1573 300 150ZM180.415 156.007C172.419 164.01 161.792 168.417 150.5 168.417C139.208 168.417 128.581 164.01 120.585 156.007C112.59 148.005 108.186 137.367 108.186 126.065C108.186 114.763 112.59 104.126 120.585 96.1236C128.581 88.1211 139.208 83.7136 150.5 83.7136C161.792 83.7136 172.419 88.1211 180.415 96.1236C188.41 104.126 192.814 114.763 192.814 126.065C192.814 137.367 188.41 148.005 180.415 156.007Z" fill="white"/>
</svg>
