<svg width="300" height="300" viewBox="0 0 300 300" fill="none" xmlns="http://www.w3.org/2000/svg">
<path d="M150 64.2856C139.405 64.2856 129.047 67.4276 120.237 73.3141C111.428 79.2006 104.561 87.5673 100.506 97.3562C96.4518 107.145 95.3909 117.916 97.458 128.308C99.525 138.7 104.627 148.246 112.119 155.738C119.611 163.23 129.157 168.332 139.549 170.399C149.941 172.466 160.712 171.405 170.501 167.351C180.29 163.296 188.657 156.43 194.543 147.62C200.43 138.81 203.571 128.452 203.571 117.857C203.571 103.649 197.927 90.0229 187.881 79.9764C177.834 69.9298 164.208 64.2856 150 64.2856ZM150 150C143.643 150 137.428 148.115 132.142 144.583C126.857 141.051 122.737 136.031 120.304 130.158C117.871 124.284 117.235 117.821 118.475 111.586C119.715 105.351 122.776 99.6239 127.272 95.1286C131.767 90.6334 137.494 87.5721 143.729 86.3318C149.964 85.0916 156.427 85.7281 162.301 88.1609C168.174 90.5938 173.194 94.7136 176.726 99.9995C180.258 105.285 182.143 111.5 182.143 117.857C182.134 126.379 178.745 134.55 172.719 140.576C166.693 146.602 158.522 149.991 150 150Z" fill="white"/>
<path d="M150 0C120.333 0 91.3319 8.79735 66.6645 25.2796C41.9971 41.7618 22.7713 65.1886 11.4181 92.5975C0.0649925 120.006 -2.90551 150.166 2.88227 179.264C8.67006 208.361 22.9562 235.088 43.934 256.066C64.9119 277.044 91.6394 291.33 120.737 297.118C149.834 302.906 179.994 299.935 207.403 288.582C234.811 277.229 258.238 258.003 274.72 233.335C291.203 208.668 300 179.667 300 150C299.955 110.231 284.137 72.1047 256.016 43.9841C227.895 15.8635 189.769 0.045372 150 0V0ZM85.7143 261.182V246.429C85.7229 237.906 89.1121 229.736 95.1382 223.709C101.164 217.683 109.335 214.294 117.857 214.286H182.143C190.665 214.294 198.836 217.683 204.862 223.709C210.888 229.736 214.277 237.906 214.286 246.429V261.182C194.777 272.574 172.591 278.577 150 278.577C127.409 278.577 105.223 272.574 85.7143 261.182V261.182ZM235.629 245.636C235.415 231.582 229.689 218.175 219.685 208.303C209.68 198.43 196.198 192.884 182.143 192.857H117.857C103.802 192.884 90.3197 198.43 80.3153 208.303C70.3108 218.175 64.585 231.582 64.3715 245.636C44.9418 228.287 31.24 205.445 25.0804 180.136C18.9208 154.826 20.594 128.243 29.8783 103.906C39.1627 79.5683 55.6203 58.625 77.0719 43.8489C98.5235 29.0728 123.957 21.161 150.005 21.161C176.054 21.161 201.487 29.0728 222.939 43.8489C244.391 58.625 260.848 79.5683 270.132 103.906C279.417 128.243 281.09 154.826 274.93 180.136C268.771 205.445 255.069 228.287 235.639 245.636H235.629Z" fill="white"/>
</svg>
